<?xml version="1.0" encoding="utf-8"?>
<!-- Generator: Adobe Illustrator 19.2.1, SVG Export Plug-In . SVG Version: 6.00 Build 0)  -->
<svg version="1.1" baseProfile="tiny" id="Layer_1" xmlns="http://www.w3.org/2000/svg" xmlns:xlink="http://www.w3.org/1999/xlink"
	 x="0px" y="0px" viewBox="0 0 193.9 135.3"
	 width="200px" xml:space="preserve">
<g>
	<path fill="#FFFFFF" d="M156.8,106.7l1,6.5c-15.4,2-97.4,11.8-121.1-4l-2.2,3.3c9.5,6.3,28,9.5,55.1,9.5c5.8,0,12.1-0.1,18.7-0.4
		c22.6-1,43.2-3.5,50.1-4.4l1,6.5l4-0.6l-2.6-17L156.8,106.7z"/>
	<path fill="#FFFFFF" d="M61.8,11.6H15.6v67.3h46.2V11.6z M49.6,67.4H28.5V23.1h21.1V67.4z"/>
	<polygon fill="#FFFFFF" points="91.3,78.9 104.3,78.9 104.3,23.1 120.1,23.1 120.1,11.6 73.8,11.6 73.8,23.1 91.3,23.1 	"/>
	<path fill="#FFFFFF" d="M132.1,11.6v67.3h46.2V11.6H132.1z M166.2,67.4h-21.1V23.1h21.1V67.4z"/>
</g>
</svg>
